<svg xmlns="http://www.w3.org/2000/svg" viewBox="0 0 141.732 70.866"><defs><clipPath id="a"><path d="M0 70.866h141.732V0H0Z"/></clipPath></defs><g fill="#b0535a" clip-path="url(#a)"><path d="M42.648 65.317h.824l.624-1.504h2.679l.624 1.504h.872l-2.336-5.775h-.855Zm2.823-4.984 1.064 2.833h-2.183Zm3.815 4.984h1.624c.848 0 1.56 0 2.128-.47.44-.353.959-1.12.959-2.369 0-.793-.2-1.585-.711-2.185-.64-.75-1.552-.75-2.328-.75h-1.672Zm.799-5.112h.96c.705 0 1.169.096 1.537.504.544.6.56 1.584.56 1.801 0 .336-.024 1.28-.76 1.832-.384.288-.96.32-1.512.32h-.785Zm9.477-.663h-.808l-1.728 4.936-1.64-4.936H54.5l2.056 5.775h.879Zm.594 2.928c0 1.584.64 2.983 2.608 2.983 2.056 0 2.67-1.543 2.67-3.08 0-1.96-1.006-2.983-2.606-2.983-.536 0-1.328.128-1.928.775-.632.68-.744 1.648-.744 2.305m.839-.048c0-1.185.377-2.36 1.84-2.36 1.32 0 1.753.991 1.753 2.303 0 .393-.048 1.305-.52 1.881-.336.4-.808.528-1.28.528-.456 0-.952-.12-1.28-.528-.4-.496-.513-1.192-.513-1.824m10.123-1.32c-.104-1.313-1.256-1.64-2.072-1.64-2.056 0-2.527 1.815-2.527 3.032 0 1.12.39 2.911 2.423 2.911.992 0 2.04-.47 2.16-1.607h-.88a1.137 1.137 0 0 1-.28.608c-.248.256-.584.344-.936.344-1.32 0-1.632-1.176-1.632-2.264 0-.96.248-2.385 1.64-2.385 1.112 0 1.216.8 1.248 1Zm.554 4.215h.824l.624-1.504h2.68l.624 1.504h.87l-2.334-5.775h-.856Zm2.824-4.984 1.064 2.833h-2.184Zm5.348 4.984v-5.096h1.936v-.679h-4.663v.68h1.936v5.095Zm2.956-5.775v3.52c0 .864.16 1.2.336 1.456.535.767 1.496.92 2.04.92.416 0 1.296-.089 1.864-.8.463-.576.47-1.224.47-1.536v-3.56h-.774v3.544c0 .416 0 1.64-1.56 1.64-.4 0-.961-.088-1.321-.568-.12-.168-.256-.424-.256-1.04v-3.576Zm6.295 0v3.52c0 .864.16 1.2.336 1.456.535.767 1.496.92 2.04.92.416 0 1.296-.089 1.864-.8.463-.576.47-1.224.47-1.536v-3.56h-.774v3.544c0 .416 0 1.64-1.56 1.64-.4 0-.96-.088-1.32-.568-.121-.168-.257-.424-.257-1.04v-3.576Zm6.283 5.775h.79V62.71h1.009c.969 0 1.169.24 1.265 1.08.056.44.136 1.144.264 1.528h.855c-.224-.64-.28-1.136-.36-1.816-.08-.72-.328-.968-.88-1.112a1.41 1.41 0 0 0 .68-.375c.256-.256.408-.616.408-1.025 0-.464-.208-.904-.64-1.175-.423-.272-1.032-.272-1.328-.272h-2.063Zm.775-5.104h1.264c.32 0 1.153 0 1.153.937 0 .48-.28.688-.392.752-.216.128-.673.128-.761.128h-1.264ZM5.204 45.595l2.589 7.068h2.296l2.547-7.068h-2.001L9.01 50.396l-1.596-4.801Zm14.499 7.068a8.543 8.543 0 0 1-.168-1.792l-.014-2.84c0-.322-.014-1.163-.49-1.737-.698-.811-1.93-.909-2.52-.909-.671 0-1.497.112-2.14.573-.742.532-.784 1.288-.798 1.665H15.6c0-.167 0-.391.155-.629a.941.941 0 0 1 .784-.393c.196 0 .743.07.925.589.084.252.098.476.098.939-.686 0-1.934 0-2.801.391-1.301.602-1.497 1.638-1.497 2.198 0 .561.196 1.135.616 1.554.279.266.74.559 1.763.559.392 0 1.33 0 2.115-1.132 0 .208 0 .53.07.964Zm-2.14-3.332c0 .757-.028 1.303-.392 1.752a1.176 1.176 0 0 1-.883.406c-.686 0-1.01-.532-1.01-1.009 0-.841.954-1.261 2.285-1.149m3.843 3.332h2.084V48.52c0-.547.127-.897.253-1.079.224-.336.63-.546 1.078-.546.533 0 .855.294 1.009.602.112.224.112.476.112.77v4.396h2.112v-3.822c0-1.316-.042-1.68-.195-2.114-.182-.489-.77-1.328-2.155-1.328-1.541 0-2.101.909-2.297 1.231l-.056-1.063h-1.987c.042.49.042 1.26.042 1.288Zm12.516 0h2.042v-8.4l3.922 8.4h2.98v-10.12h-2.014v7.966l-3.795-7.966h-3.135Zm10.805-8.302h2.21v-1.804h-2.21Zm.07 8.302h2.07v-7.082h-2.07Zm10.342-3.01c.028-.587.056-1.622-.42-2.589-.643-1.315-1.847-1.707-2.855-1.707-.771 0-1.443.224-1.99.587-1.188.825-1.468 2.199-1.468 3.346 0 1.134.266 2.087.91 2.758.74.769 1.889.881 2.492.881 1.036 0 1.96-.279 2.477-.825.574-.601.644-1.204.672-1.54h-1.89c-.195.785-.713.981-1.231.981-1.443 0-1.443-1.429-1.443-1.892Zm-4.676-1.3c.042-.827.42-1.584 1.33-1.584 1.205 0 1.233 1.262 1.233 1.584Zm6.1-2.758v4.396c0 .35 0 1.33.46 1.903.393.518 1.176.951 2.128.951 1.345 0 1.878-.811 2.088-1.118l.07.936h2.014a6.43 6.43 0 0 1-.056-.517c0-.182-.014-.364-.042-1.889v-4.662h-2.126v3.57c0 1.204 0 2.198-1.331 2.198-1.107 0-1.107-.938-1.107-1.554v-4.214Zm7.823 0 2.31 7.068h2.28l1.485-5.236 1.456 5.236h2.254l2.42-7.068h-2.056l-1.386 5.334-1.484-5.334h-2.282l-1.498 5.334-1.301-5.334Zm19.546 4.058c.028-.587.056-1.622-.42-2.589-.643-1.315-1.846-1.707-2.855-1.707a3.55 3.55 0 0 0-1.988.587c-1.19.825-1.47 2.199-1.47 3.346 0 1.134.267 2.087.91 2.758.742.769 1.89.881 2.492.881 1.037 0 1.96-.279 2.478-.825.574-.601.643-1.204.67-1.54h-1.887c-.196.785-.714.981-1.233.981-1.443 0-1.443-1.429-1.443-1.892Zm-4.676-1.3c.042-.827.42-1.584 1.33-1.584 1.206 0 1.234 1.262 1.234 1.584Zm6.194 4.31h2.085V48.52c0-.547.126-.897.252-1.079.224-.336.63-.546 1.078-.546.533 0 .855.294 1.009.602.112.224.112.476.112.77v4.396h2.113v-3.822c0-1.316-.042-1.68-.196-2.114-.182-.489-.77-1.328-2.155-1.328-1.541 0-2.101.909-2.297 1.231l-.056-1.063h-1.987c.042.49.042 1.26.042 1.288Zm8.574 0h2.084l-.014-4.326c0-1.106.743-1.442 1.33-1.442 1.164 0 1.164 1.134 1.164 1.54v4.228h2.056v-4.298c0-.924-.21-1.568-.462-1.917-.335-.434-1.007-.951-2.057-.951-1.288 0-1.807.727-2.045 1.063v-4.003h-2.056Zm8.437-7.068v4.396c0 .35 0 1.33.462 1.903.392.518 1.175.951 2.127.951 1.345 0 1.877-.811 2.087-1.118l.07.936h2.015a6.43 6.43 0 0 1-.056-.517c0-.182-.014-.364-.042-1.889v-4.662h-2.127v3.57c0 1.204 0 2.198-1.331 2.198-1.106 0-1.106-.938-1.106-1.554v-4.214Zm8.557-1.234h2.21v-1.804h-2.21Zm.07 8.302h2.07v-7.082h-2.07Zm3.489 0h6.032v-1.426h-3.723l3.583-3.866v-1.776h-5.794v1.384h3.485l-3.583 3.866Zm13.785-3.01c.028-.587.056-1.622-.42-2.589-.643-1.315-1.846-1.707-2.855-1.707a3.55 3.55 0 0 0-1.988.587c-1.19.825-1.47 2.199-1.47 3.346 0 1.134.267 2.087.91 2.758.742.769 1.89.881 2.492.881 1.037 0 1.96-.279 2.478-.825.574-.601.644-1.204.672-1.54h-1.89c-.195.785-.713.981-1.232.981-1.443 0-1.443-1.429-1.443-1.892Zm-4.676-1.3c.042-.827.42-1.584 1.33-1.584 1.206 0 1.234 1.262 1.234 1.584Zm6.194 4.31h2.085V48.52c0-.547.126-.897.252-1.079.224-.336.63-.546 1.079-.546.532 0 .854.294 1.008.602.112.224.112.476.112.77v4.396h2.113v-3.822c0-1.316-.042-1.68-.196-2.114-.182-.489-.77-1.328-2.155-1.328-1.541 0-2.101.909-2.297 1.231l-.056-1.063h-1.987c.042.49.042 1.26.042 1.288Z"/></g><path fill="#b0535a" d="M62.284 26.79h18.033V8.755H62.284Z"/><path fill="none" stroke="#b0535a" stroke-width=".75" d="M59.69 26.79V8.755M82.91 26.79V8.755M62.284 6.163h18.033M62.284 29.382h18.033"/></svg>